<svg width="818" height="200" viewBox="0 0 818 200" fill="none" xmlns="http://www.w3.org/2000/svg">
<g clip-path="url(#clip0_629_48)">
<path d="M341.158 54.3157C341.158 36.3157 350.842 27.7894 373.579 27.7894C396.316 27.7894 406 36.421 406 54.3157C406 72.2105 396.211 80.8421 373.579 80.8421C350.947 80.8421 341.158 72.2105 341.158 54.3157ZM386.842 54.3157C386.842 48.8421 384.947 43.7894 373.579 43.7894C362.211 43.7894 360.316 48.6315 360.316 54.3157C360.316 60 362.316 64.8421 373.579 64.8421C384.842 64.8421 386.842 59.6842 386.842 54.3157Z" fill="white"/>
<path d="M468.526 48.3158C468.63 50.9424 468.189 53.562 467.231 56.0099C466.273 58.4578 464.819 60.681 462.961 62.5397C461.102 64.3984 458.879 65.8524 456.431 66.8102C453.983 67.768 451.363 68.209 448.737 68.1053H427.684V80.1053H408.21V28.5263H448.737C451.363 28.4226 453.983 28.8635 456.431 29.8213C458.879 30.7792 461.102 32.2331 462.961 34.0919C464.819 35.9506 466.273 38.1738 467.231 40.6217C468.189 43.0696 468.63 45.6892 468.526 48.3158ZM449.368 48.3158C449.368 44.7368 446.947 44.7368 445.053 44.7368H427.368V51.7895H445.053C446.947 51.7895 449.368 51.7895 449.368 48.3158Z" fill="white"/>
<path d="M533.368 44.7369H511.263V80.1053H492V44.7369H469.895V28.5264H533.053L533.368 44.7369Z" fill="white"/>
<path d="M554.632 80.1053H535.474V28.5264H554.632V80.1053Z" fill="white"/>
<path d="M636.632 80.1053H617.474V55.579L603.368 80.1053H590.842L576.737 55.579V80.1053H557.895V28.5264H581.579L597.474 58.0001L613.368 28.5264H636.947L636.632 80.1053Z" fill="white"/>
<path d="M684.211 70.8422H663.158L659.579 80.1053H638.526L659.579 28.5264H688L709.053 80.1053H688L684.211 70.8422ZM679.263 57.579L673.684 42.1053L667.684 57.8948L679.263 57.579Z" fill="white"/>
<path d="M356.105 146.632C356.105 152 360.526 154.526 377.158 154.526C391.053 154.526 395.263 153.053 395.263 148.947C395.263 144.842 392.316 143.895 375.579 143.158C353.053 142.105 344 138.526 344 126.947C344 115.368 355.579 112 374.842 112C394.105 112 406.421 116.842 406.421 129.579H393.263C393.263 124 387.579 122.526 373.789 122.526C360 122.526 357.684 123.789 357.684 127.684C357.684 131.579 360.737 132.316 375.789 133.263C396.105 134.316 408.737 135.474 408.737 148.526C408.737 161.579 395.684 165.053 377.158 165.053C356.105 165.053 343.368 161.474 343.368 146.632H356.105Z" fill="white"/>
<path d="M426.737 123.263V133.789H468V143.368H426.737V153.895H468V164.421H413.474V112.842H468V123.368L426.737 123.263Z" fill="white"/>
<path d="M521.895 149.053L531.368 164.316H515.789L507.474 150.526H486.421V164.316H472.842V112.737H513.368C515.949 112.527 518.544 112.866 520.984 113.732C523.424 114.599 525.652 115.972 527.522 117.763C529.392 119.553 530.861 121.72 531.832 124.119C532.804 126.519 533.256 129.097 533.158 131.684C533.343 135.396 532.355 139.071 530.333 142.189C528.311 145.307 525.359 147.708 521.895 149.053ZM486.105 139.474H509.684C513.684 139.474 520.21 139.474 520.21 131.684C520.21 123.895 514.105 123.895 509.684 123.895H486.105V139.474Z" fill="white"/>
<path d="M603.158 112.737L576.632 164.316H558.526L532 112.737H547.368L568.421 154.842L589.474 112.737H603.158Z" fill="white"/>
<path d="M619.579 164.316H606.316V112.737H619.579V164.316Z" fill="white"/>
<path d="M656.421 112C677.474 112 687.368 119.789 688.632 134.737H675.158C673.895 126.421 667.474 123.158 656.421 123.158C642.947 123.158 637.263 127.895 637.263 138.526C637.263 149.158 643.053 154 656.421 154C666.947 154 673.895 150.632 675.158 142.211H688.632C687.368 157.158 677.053 165.053 656.421 165.053C633.789 165.053 624 155.684 624 138.526C624 121.368 633.789 112 656.421 112Z" fill="white"/>
<path d="M706.632 123.263V133.789H748V143.368H706.632V153.895H748V164.421H693.368V112.842H748V123.368L706.632 123.263Z" fill="white"/>
<path d="M765.263 146.632C765.263 152 769.684 154.526 786.316 154.526C800.211 154.526 804.421 153.053 804.421 148.947C804.421 144.842 801.474 143.895 784.737 143.158C762.211 142.105 753.158 138.526 753.158 126.947C753.158 115.368 764.737 112 784 112C803.263 112 815.579 116.842 815.579 129.579H802.421C802.421 124 796.737 122.526 782.947 122.526C769.158 122.526 766.842 123.789 766.842 127.684C766.842 131.579 769.895 132.316 784.947 133.263C805.263 134.316 817.895 135.474 817.895 148.526C817.895 161.579 804.842 165.053 786.316 165.053C765.263 165.053 752.526 161.474 752.526 146.632H765.263Z" fill="white"/>
<path d="M302.105 32.1052H299.474V168.632H302.105V32.1052Z" fill="white"/>
<path d="M153.474 48.421C121.895 46.6316 114.947 45.0526 114.947 36.5263C114.947 28 121.474 26 149.263 26C177.053 26 190.526 28.9474 190.526 40.9474H218.737C218.737 13.6842 193.684 3.36841 152.316 3.36841C110.947 3.36841 86.7368 11.0526 86.7368 34.9474C86.7368 58.8421 105.263 67.2631 153.474 69.4737C189.053 71.1579 195.579 72.7368 195.579 81.7895C195.579 90.8421 186.632 93.7895 157.053 93.7895C144.466 94.7447 131.817 93.0964 119.895 88.9474C117.805 86.1547 115.363 83.6428 112.632 81.4737C110.314 79.7199 107.848 78.1702 105.263 76.8421C92.4157 70.7812 78.3008 67.8932 64.1053 68.421C25.6842 68.421 0 82.2105 0 115.789C0 149.368 25.6842 163.474 63.8947 163.474C102.105 163.474 127.895 149.684 127.895 115.789C127.895 115.789 127.895 114.842 127.895 114.316C137.019 115.292 146.192 115.749 155.368 115.684C196 115.684 223.684 109.789 223.684 80.5263C223.684 51.2631 196.737 50.8421 153.474 48.421ZM100.947 115.789C100.947 134.947 88.6316 141.053 63.8947 141.053C39.1579 141.053 26.8421 135.368 26.8421 115.789C26.8421 96.2105 39.0526 90.8421 63.8947 90.8421C71.9256 90.6994 79.9153 92.0191 87.4737 94.7368C90.2486 95.7438 92.7599 97.3651 94.8197 99.4796C96.8795 101.594 98.4345 104.147 99.3684 106.947C100.331 109.8 100.863 112.78 100.947 115.789Z" fill="white"/>
<path d="M260.526 104.105C260.526 106.897 259.417 109.574 257.443 111.548C255.469 113.522 252.792 114.631 250 114.631H244.211C241.419 114.631 238.741 113.522 236.767 111.548C234.793 109.574 233.684 106.897 233.684 104.105C233.684 101.313 234.793 98.636 236.767 96.6619C238.741 94.6879 241.419 93.5789 244.211 93.5789H250C252.792 93.5789 255.469 94.6879 257.443 96.6619C259.417 98.636 260.526 101.313 260.526 104.105Z" fill="white"/>
<path d="M68.0001 200C61.3554 200.163 54.7523 198.907 48.6316 196.316C44.5605 194.581 40.9545 191.913 38.1053 188.526C28.2106 175.684 31.3685 154.421 47.0527 128.632C65.7048 99.9349 89.2981 74.7734 116.737 54.3158C143.503 32.7426 173.911 16.1302 206.526 5.26317C235.368 -3.47367 256.737 -1.26314 266.737 11.579C276.737 24.4211 273.684 44.2105 259.368 68.7369L257.684 71.6842L250.421 67.4737L252.632 64.5263C265.053 43.4737 267.895 26.1053 260.632 16.7369C253.368 7.36844 234.737 6.21054 209.474 13.3684C178.049 23.9954 148.754 40.1038 122.947 60.9474C96.1503 80.7459 73.059 105.12 54.7369 132.947C41.2632 155.263 37.7895 173.579 45.3685 183.263C52.9474 192.947 69.158 193.789 92.3158 187.895L95.579 186.947L97.7895 195.158L94.7369 196C86.0364 198.49 77.0483 199.834 68.0001 200Z" fill="url(#paint0_linear_629_48)"/>
</g>
<defs>
<linearGradient id="paint0_linear_629_48" x1="178.459" y1="133.18" x2="117.206" y2="54.3454" gradientUnits="userSpaceOnUse">
<stop stop-color="white" stop-opacity="0"/>
<stop offset="0.16" stop-color="white" stop-opacity="0.01"/>
<stop offset="0.26" stop-color="#FEFEFE" stop-opacity="0.05"/>
<stop offset="0.34" stop-color="#FDFDFD" stop-opacity="0.11"/>
<stop offset="0.41" stop-color="#FCFCFC" stop-opacity="0.19"/>
<stop offset="0.48" stop-color="#FAFAFA" stop-opacity="0.3"/>
<stop offset="0.54" stop-color="#F7F7F7" stop-opacity="0.44"/>
<stop offset="0.59" stop-color="#F4F4F4" stop-opacity="0.6"/>
<stop offset="0.65" stop-color="#F1F1F1" stop-opacity="0.78"/>
<stop offset="0.7" stop-color="#EDEDED"/>
<stop offset="1" stop-color="#DADADA"/>
</linearGradient>
<clipPath id="clip0_629_48">
<rect width="817.895" height="200" fill="white"/>
</clipPath>
</defs>
</svg>
